<?xml version="1.0" encoding="utf-8"?>
<!-- Generator: Adobe Illustrator 26.0.2, SVG Export Plug-In . SVG Version: 6.00 Build 0)  -->
<svg version="1.1" id="Layer_1" xmlns="http://www.w3.org/2000/svg" xmlns:xlink="http://www.w3.org/1999/xlink" x="0px" y="0px"
	 viewBox="0 0 481.9 361.4" style="enable-background:new 0 0 481.9 361.4;" xml:space="preserve">
<style type="text/css">
	.st0{fill:#F0F0F0;}
	.st1{fill:#FFFFFF;}
	.st2{fill:#26A69A;}
	.st3{fill:#1E88E5;}
	.st4{fill:#FDD835;}
	.st5{fill:#EF5350;}
	.st6{fill:#1565C0;}
	.st7{fill:#4DB6AC;}
</style>
<path class="st0" d="M0,331.3c0,16.6,13.5,30.1,30.1,30.1h421.6c16.6,0,30.1-13.5,30.1-30.1V30.2c0-16.6-13.5-30.1-30.1-30.1H30.1
	C13.5,0,0,13.5,0,30.2V331.3z"/>
<path class="st1" d="M30.1,0C13.5,0,0,13.5,0,30.2v301.2c0,8.6,3.6,16.2,9.3,21.7l353-353H30.1V0z"/>
<rect x="240.9" class="st2" width="120.5" height="60.2"/>
<rect x="120.5" class="st3" width="120.5" height="60.2"/>
<path class="st4" d="M451.8,0h-90.4v60.2h120.5v-30C481.9,13.5,468.4,0,451.8,0z"/>
<path class="st5" d="M30.1,0h90.4v60.2H0v-30C0,13.5,13.5,0,30.1,0z"/>
<g>
	<polygon class="st6" points="240.9,195.8 180.7,195.8 180.7,135.2 150.6,135.2 150.6,195.8 90.4,195.8 90.4,225.9 150.6,225.9 
		150.6,285.8 180.7,285.8 180.7,225.9 240.9,225.9 	"/>
	<path class="st6" d="M343.1,279.3c-3.2,12.1-11.1,19-20.9,19c-12.6,0-19.2-9.1-15-24.6l30-111.6l-14.5,3.4
		c-11.6,2.3-19.5-4.6-19.5-15c0-7.6,5.2-14.8,13.3-17c28.5-7.8,38.8-11.6,48.5-11.6h0.2c11.3,0,17.5,9.1,14.5,20.4L343.1,279.3z"/>
</g>
<polygon class="st7" points="361.4,0 240.9,0 240.9,60.3 302.1,60.3 361.4,0.9 "/>
</svg>
